<?xml version="1.0" encoding="utf-8"?>
<svg viewBox="0 0 28.678 18.703" xmlns="http://www.w3.org/2000/svg">
  <path d="M 21.894 10.594 L 24.894 13.594 L 27.894 10.594" stroke="black" stroke-linecap="round" stroke-linejoin="round"/>
  <path d="M 5.024 14.892 L 6.032 14.91 L 6.032 17.52 L 5.024 17.52 L 5.024 14.892 Z M 5.114 14.694 L 5.114 3.732 L 5.924 3.606 L 5.924 14.73 L 5.114 14.694 Z M 5.024 0.924 L 6.032 0.924 L 6.032 3.498 L 5.024 3.624 L 5.024 0.924 Z M 9.038 5.496 C 8.894 5.328 8.702 5.166 8.462 5.01 C 8.222 4.854 7.952 4.716 7.652 4.596 C 7.352 4.464 7.022 4.362 6.662 4.29 C 6.314 4.206 5.948 4.164 5.564 4.164 C 4.58 4.164 3.854 4.35 3.386 4.722 C 2.918 5.094 2.684 5.604 2.684 6.252 C 2.684 6.708 2.804 7.068 3.044 7.332 C 3.284 7.596 3.65 7.812 4.142 7.98 C 4.646 8.148 5.282 8.322 6.05 8.502 C 6.938 8.694 7.706 8.928 8.354 9.204 C 9.002 9.48 9.5 9.852 9.848 10.32 C 10.196 10.776 10.37 11.388 10.37 12.156 C 10.37 12.768 10.25 13.302 10.01 13.758 C 9.782 14.202 9.458 14.574 9.038 14.874 C 8.618 15.162 8.126 15.378 7.562 15.522 C 6.998 15.654 6.386 15.72 5.726 15.72 C 5.078 15.72 4.442 15.654 3.818 15.522 C 3.206 15.378 2.624 15.174 2.072 14.91 C 1.52 14.646 1.004 14.316 0.524 13.92 L 1.298 12.552 C 1.49 12.756 1.736 12.96 2.036 13.164 C 2.348 13.356 2.696 13.536 3.08 13.704 C 3.476 13.872 3.902 14.01 4.358 14.118 C 4.814 14.214 5.282 14.262 5.762 14.262 C 6.674 14.262 7.382 14.1 7.886 13.776 C 8.39 13.44 8.642 12.954 8.642 12.318 C 8.642 11.838 8.498 11.454 8.21 11.166 C 7.934 10.878 7.52 10.638 6.968 10.446 C 6.416 10.254 5.744 10.062 4.952 9.87 C 4.088 9.654 3.362 9.42 2.774 9.168 C 2.186 8.904 1.742 8.562 1.442 8.142 C 1.154 7.722 1.01 7.176 1.01 6.504 C 1.01 5.688 1.208 4.998 1.604 4.434 C 2 3.87 2.546 3.444 3.242 3.156 C 3.938 2.868 4.724 2.724 5.6 2.724 C 6.176 2.724 6.71 2.784 7.202 2.904 C 7.706 3.024 8.174 3.192 8.606 3.408 C 9.038 3.624 9.434 3.882 9.794 4.182 L 9.038 5.496 Z" fill="#1D1F22"/>
</svg>